<svg id="Layer_1" data-name="Layer 1" xmlns="http://www.w3.org/2000/svg" width="1000" height="400" viewBox="0 0 1000 400">
  <defs>
    <style>
      .cls-1 {
        fill: #333e48;
      }

      .cls-2 {
        fill: #95d600;
      }

      .cls-3 {
        fill: #0091bd;
      }
    </style>
  </defs>
  <g>
    <g>
      <path class="cls-1" d="M803.92,249c4.85,0,8.9.58,12.16,3.41a13.44,13.44,0,0,1,4.42,10.35c0,6.81-4.27,13.54-15.28,13.54h-4.71v21h-5.36V249Zm-3.41,22.23h4.42c6.37,0,10.21-3.18,10.21-8.76,0-7.67-7.17-8.4-10.64-8.4h-4Z"/>
      <path class="cls-1" d="M848.45,267.25h5.21V297.3h-5.21v-4.2a12.67,12.67,0,0,1-10.28,5.07c-7.61,0-14.63-5.36-14.63-15.93,0-10.35,7-15.71,14.63-15.71a12.44,12.44,0,0,1,10.28,5Zm-19.55,15c0,6.45,3.62,11.3,9.85,11.3s10-5.29,10-11.23c0-7.75-5.36-11.15-10-11.15C833.61,271.16,828.9,274.93,828.9,282.24Z"/>
      <path class="cls-1" d="M887.05,275.65a12.16,12.16,0,0,0-9.42-4.49c-5.57,0-10.64,3.91-10.64,11.23s5.21,11.15,10.57,11.15a12.82,12.82,0,0,0,9.7-4.71v6.23a16,16,0,0,1-9.56,3.11c-9.34,0-16.07-6.66-16.07-15.71s6.8-15.93,16.07-15.93a16,16,0,0,1,9.35,2.89Z"/>
      <path class="cls-1" d="M900.44,244.51V278.4l11-11.15h6.8l-12.88,12.89,15.2,17.16h-6.81l-12-13.68-1.3,1.3V297.3h-5.21V244.51Z"/>
    </g>
    <g>
      <g>
        <path class="cls-1" d="M663,169.35a38.34,38.34,0,0,0-10-7.16,32.83,32.83,0,0,0-13.29-3c-17.79,0-31,14.33-31,32.12,0,20.91,17,31.42,31.08,31.42a32,32,0,0,0,14.32-3.58,35.19,35.19,0,0,0,8.9-6.47V223.3a40.16,40.16,0,0,1-23.22,7.51c-22.88,0-39.86-17.33-39.86-39.63,0-23,17.21-40.08,40.32-40.08A36.37,36.37,0,0,1,663,158.72Z"/>
        <path class="cls-1" d="M678.39,229.42l12.82-81.32,29.57,65L750.93,148l12,81.44h-8.78l-7.28-53.6-26.22,56.84-25.88-56.84-7.62,53.6Z"/>
        <path class="cls-1" d="M817.47,167.62a18.53,18.53,0,0,0-4.51-5.78,13.87,13.87,0,0,0-8.66-2.66c-7.62,0-12.94,4.74-12.94,11.9a8.07,8.07,0,0,0,2.89,6.7c2.31,2.31,5.2,3.58,8.09,4.86l7.39,3.23c4.5,2,8.66,4,11.9,7.28a18.52,18.52,0,0,1,5.54,14c0,14.21-10.51,23.69-24.37,23.69-5.09,0-11.44-1-16.75-6.24-3.81-3.7-6.12-9-7.16-13.63l8.31-2.31a18.25,18.25,0,0,0,4.62,9.82,14.73,14.73,0,0,0,11.09,4.27c10.52,0,15.48-7.51,15.48-15.25a11.51,11.51,0,0,0-3.81-9c-2.19-2.08-5.2-3.46-9.24-5.31l-6.93-3.24c-3-1.38-6.82-3-10.28-6.35A16,16,0,0,1,782.81,171c0-11.9,9.13-19.87,21.61-19.87a20.86,20.86,0,0,1,12.35,3.46,23.28,23.28,0,0,1,7.51,8.55Z"/>
        <path class="cls-1" d="M853.74,152.37v77h-8.55v-77Z"/>
        <path class="cls-1" d="M910.34,167.62a18.65,18.65,0,0,0-4.5-5.78,13.93,13.93,0,0,0-8.67-2.66c-7.62,0-12.94,4.74-12.94,11.9a8.07,8.07,0,0,0,2.89,6.7c2.31,2.31,5.2,3.58,8.09,4.86l7.39,3.23c4.51,2,8.67,4,11.9,7.28a18.52,18.52,0,0,1,5.54,14c0,14.21-10.51,23.69-24.37,23.69-5.08,0-11.44-1-16.75-6.24-3.81-3.7-6.12-9-7.16-13.63l8.31-2.31a18.19,18.19,0,0,0,4.63,9.82,14.7,14.7,0,0,0,11.08,4.27c10.52,0,15.49-7.51,15.49-15.25a11.52,11.52,0,0,0-3.82-9c-2.19-2.08-5.2-3.46-9.24-5.31l-6.93-3.24c-3-1.38-6.82-3-10.28-6.35A16,16,0,0,1,875.69,171c0-11.9,9.12-19.87,21.6-19.87a20.89,20.89,0,0,1,12.36,3.46,23.37,23.37,0,0,1,7.51,8.55Z"/>
      </g>
      <g>
        <g>
          <path class="cls-2" d="M241.66,117.39l-5.24,5.24L234,125.08l-2.56,2.56-1.15,1.15a37.48,37.48,0,0,0-10.59-7.26c-1.23-.55-2.5-1.07-3.81-1.52a.37.37,0,0,1-.14,0c-.73-.26-1.46-.48-2.22-.68s-1.33-.37-2-.53c-.24-.06-.5-.12-.77-.16-.5-.14-1-.22-1.55-.32s-.83-.16-1.27-.22-.69-.1-1-.12c-.74-.13-1.49-.21-2.24-.27s-1.77-.16-2.72-.18-1.85-.06-2.78-.08c-20.51.08-44.71,10.33-64.9,28.34-.91.8-1.84,1.63-2.73,2.5s-1.79,1.71-2.68,2.6c-1,1.05-2.1,2.14-3.12,3.23-.63.66-1.27,1.37-1.9,2.07-.79.87-1.53,1.74-2.28,2.63s-1.55,1.79-2.28,2.72a121.74,121.74,0,0,0-12.58,18.88,99.45,99.45,0,0,0-8.49,20.71,73,73,0,0,0-2.91,21.58,47.28,47.28,0,0,0,4.72,20,38.38,38.38,0,0,0,7,9.85,37.28,37.28,0,0,0,6,4.82c.69.46,1.37.86,2.1,1.29l1.93,1A44.68,44.68,0,0,0,132.11,264a65.84,65.84,0,0,0,21.52-1.35,93.15,93.15,0,0,0,21-7.36A117.65,117.65,0,0,0,194,243.46c.65-.46,1.3-1,1.92-1.43s1.27-1,1.92-1.49,1.25-1,1.87-1.56,1.23-1,1.86-1.57,1-.85,1.47-1.29l.36-.32c.71-.63,1.41-1.25,2.12-1.94,1.09-1,2.16-2.06,3.23-3.12.4-.39.78-.77,1.17-1.19s.78-.79,1.15-1.19l11.69,11.11c-.12.14-.24.26-.36.38-.75.77-1.49,1.55-2.26,2.32-1.29,1.29-2.62,2.56-4,3.81s-2.5,2.28-3.77,3.37c-.67.56-1.31,1.15-2,1.69-1.27,1.07-2.56,2.1-3.85,3.11-1,.79-2,1.53-3,2.28a134.19,134.19,0,0,1-22,13.21,111.77,111.77,0,0,1-24.6,8.45,84.87,84.87,0,0,1-26.57,1.67,60.16,60.16,0,0,1-26.19-8.89A53.15,53.15,0,0,1,95.61,264a51.61,51.61,0,0,1-10-14.18,63.69,63.69,0,0,1-6.13-26.7,91.25,91.25,0,0,1,3.43-26.22,118.66,118.66,0,0,1,9.66-24.06,135.92,135.92,0,0,1,14.16-21.38,1.13,1.13,0,0,1,.2-.26c.56-.74,1.17-1.45,1.75-2.16s1-1.13,1.48-1.69c.76-.91,1.55-1.79,2.36-2.68.64-.75,1.33-1.47,2-2.2l.14-.14c.91-1,1.84-1.92,2.77-2.85,1.11-1.1,2.24-2.21,3.41-3.3,1-1,2.07-1.94,3.14-2.87a1.75,1.75,0,0,1,.2-.16l.06-.06a.63.63,0,0,1,.12-.1A141.13,141.13,0,0,1,145,117.79a122.35,122.35,0,0,1,23.37-11,96,96,0,0,1,25.74-5.34c.56,0,1.11-.08,1.67-.1a68.82,68.82,0,0,1,8.63.1c.55,0,1.11.08,1.66.14s1.1.1,1.65.16l1.65.2c1,.16,2,.33,3,.51,1.89.36,3.77.8,5.6,1.33l1.52.44c.54.18,1.07.34,1.59.53a51.75,51.75,0,0,1,5.28,2.09A52.49,52.49,0,0,1,241.66,117.39Z"/>
          <path class="cls-2" d="M250.74,196.69l-14.93-6,0,0q-1.54,3.81-3.39,7.56c-1.25,2.53-2.6,5-4.07,7.49-.5.8-1,1.61-1.51,2.44s-1,1.61-1.58,2.44h0l13.44,8.87c.36-.56.74-1.09,1.09-1.65a131.16,131.16,0,0,0,7.32-13,2.68,2.68,0,0,0,.12-.24c.8-1.66,1.59-3.33,2.32-5,.4-.95.78-1.88,1.17-2.83,0,0,0,0,0-.06Zm6.39-49.35-.44.44-14.54,14.55c0,.7-.06,1.43-.11,2.15-.08,1.6-.24,3.21-.46,4.84l16,2.12h0c0-.24.06-.46.08-.68.09-.79.19-1.56.25-2.34.1-1,.18-1.94.24-2.93.12-2,.18-4,.16-5.91A70.75,70.75,0,0,0,257.13,147.34Z"/>
        </g>
        <polygon class="cls-3" points="283.93 111.99 168.69 227.23 121.56 180.09 135.72 165.94 168.69 198.91 228.35 139.25 230.85 136.75 233.33 134.25 235.69 131.91 238.25 129.35 240.69 126.91 269.76 97.83 283.93 111.99"/>
      </g>
      <g>
        <path class="cls-1" d="M297.35,190.36c0-23.33,18.17-40.45,40.69-40.45s40.68,17.12,40.68,40.45S360.67,230.82,338,230.82,297.35,213.58,297.35,190.36Zm8.91,0A31.78,31.78,0,1,0,338,158.12,31.91,31.91,0,0,0,306.26,190.36Z"/>
        <path class="cls-1" d="M401,256.38h-8.45V180.75H401v6.8a20.92,20.92,0,0,1,16.65-8c15.24,0,23.68,12.66,23.68,25.79,0,13.37-8.56,25.45-23.33,25.45a20.65,20.65,0,0,1-17-8.21Zm31.65-51c0-12-8.09-18.29-15.94-18.29s-16.18,6.45-16.18,18.18c0,10,6.33,18.05,16.3,18.05S432.65,215.1,432.65,205.37Z"/>
        <path class="cls-1" d="M497.37,217a28.82,28.82,0,0,1-6,7.86,23.63,23.63,0,0,1-16.18,6c-11.72,0-24-7.39-24-25.45,0-14.54,8.91-25.79,23.56-25.79,9.5,0,15.48,4.69,18.41,8.91s4.81,11.84,4.57,18.29H459.85c.12,10.08,7,16.53,15.48,16.53a14.78,14.78,0,0,0,10-3.52,19.42,19.42,0,0,0,5-6.68Zm-8.32-17.24c-1.41-7.62-7.15-12.66-14.31-12.66s-13,5.4-14.3,12.66Z"/>
        <path class="cls-1" d="M510.62,180.75h8.44v5.63a17.18,17.18,0,0,1,14-6.8c5.75,0,11,2.34,14,6.68,2.46,3.64,2.81,7.62,2.81,13v30.13h-8.44v-29.9c0-2.93-.24-6.33-2.23-8.91-1.64-2.11-4.22-3.52-8-3.52a10.64,10.64,0,0,0-8.56,3.75c-3.28,3.87-3.52,9.62-3.52,13.14v25.44h-8.44Z"/>
        <path class="cls-1" d="M563.61,200.1h25.8v8.67h-25.8Z"/>
      </g>
    </g>
  </g>
</svg>
