<svg xmlns="http://www.w3.org/2000/svg" viewBox="0 0 760 430" role="img" aria-labelledby="title desc">
  <title id="title">Disconnect Debugger debug sequence</title>
  <desc id="desc">Flow for stopping trace, uninitializing debug components, stopping the core, and closing the last active debug port connection.</desc>
  <defs>
    <marker id="arrow" markerWidth="10" markerHeight="8" refX="9" refY="4" orient="auto" markerUnits="strokeWidth">
      <path d="M0,0 L10,4 L0,8 Z" fill="#1f1f1f"/>
    </marker>
    <style>
      text { font-family: Arial, Helvetica, sans-serif; font-size: 17px; fill: #000000; }
      .box, .band { fill: #fff; stroke: #1f1f1f; stroke-width: 1.2; }
      .default { fill: #c9d9ec; }
      .missing { fill: #e8bcb8; }
      .label { text-anchor: middle; dominant-baseline: middle; }
      .seq { font-style: italic; fill: #000; }
      .small { font-size: 14px; }
      .edge { fill: none; stroke: #1f1f1f; stroke-width: 2.2; marker-end: url(#arrow); }
      .thin { stroke: #1f1f1f; stroke-width: 1.2; }
    </style>
  </defs>

  <g>
    <path class="edge" d="M90 350 H18 V82 H90"/>
    <text class="label" x="28" y="214" transform="rotate(-90 28 214)">Repeat for each Processor</text>
  </g>

  <g>
    <rect class="band" x="90" y="20" width="450" height="62"/>
    <line class="thin" x1="90" y1="20" x2="315" y2="82"/>
    <line class="thin" x1="540" y1="20" x2="315" y2="82"/>
    <text class="label" x="315" y="43">Trace enabled?</text>
    <text x="96" y="68">False</text>
    <text x="492" y="68">True</text>

    <rect class="box missing" x="315" y="82" width="225" height="52"/>
    <text class="label seq" x="427.5" y="108">TraceStop</text>

    <rect class="box" x="315" y="134" width="225" height="62"/>
    <text class="label" x="427.5" y="155">
      <tspan x="427.5" dy="0">Clear Trace Setup as</tspan>
      <tspan x="427.5" dy="19">selected by debugger GUI</tspan>
    </text>

    <rect class="box" x="90" y="82" width="225" height="114"/>

    <rect class="box" x="90" y="196" width="450" height="42"/>
    <text class="label" x="315" y="217">Uninit Debug Components (Debugger specific)</text>

    <rect class="box default" x="90" y="238" width="450" height="48"/>
    <text class="label seq" x="315" y="262">DebugCoreStop</text>

    <rect class="band" x="90" y="286" width="450" height="64"/>
    <line class="thin" x1="90" y1="286" x2="315" y2="350"/>
    <line class="thin" x1="540" y1="286" x2="315" y2="350"/>
    <text class="label" x="315" y="309">
      <tspan x="315" dy="0">Last Active Debug Port</tspan>
      <tspan x="315" dy="19">Connection?</tspan>
    </text>
    <text x="96" y="335">False</text>
    <text x="492" y="335">True</text>

    <rect class="box" x="90" y="350" width="225" height="54"/>
    <rect class="box default" x="315" y="350" width="225" height="54"/>
    <text class="label seq" x="427.5" y="377">DebugPortStop</text>
  </g>

  <g>
    <rect class="box default" x="575" y="20" width="165" height="70"/>
    <text class="label seq small" x="657.5" y="39">
      <tspan x="657.5" dy="0">Predefined debug</tspan>
      <tspan x="657.5" dy="18">sequence with</tspan>
      <tspan x="657.5" dy="18">default implementation</tspan>
    </text>
    <rect class="box missing" x="575" y="105" width="165" height="70"/>
    <text class="label seq small" x="657.5" y="124">
      <tspan x="657.5" dy="0">Predefined debug</tspan>
      <tspan x="657.5" dy="18">sequence without</tspan>
      <tspan x="657.5" dy="18">default implementation</tspan>
    </text>
  </g>
</svg>
